TC12FP-Black.ufo
<glyph name="exclam" format="1">
  <advance width="496"/>
  <unicode hex="0021"/>
  <outline>
    <contour>
      <point x="480" y="448" type="line"/>
      <point x="480" y="1472" type="line"/>
      <point x="64" y="1472" type="line"/>
      <point x="64" y="448" type="line"/>
    </contour>
    <contour>
      <point x="480" y="0" type="line"/>
      <point x="480" y="320" type="line"/>
      <point x="64" y="320" type="line"/>
      <point x="64" y="0" type="line"/>
    </contour>
  </outline>
</glyph>
<glyph name="quotedbl" format="1">
  <advance width="896"/>
  <unicode hex="0022"/>
  <outline>
    <contour>
      <point x="384" y="1088" type="line"/>
      <point x="384" y="1472" type="line"/>
      <point x="64" y="1472" type="line"/>
      <point x="64" y="1024" type="line"/>
    </contour>
    <contour>
      <point x="832" y="1088" type="line"/>
      <point x="832" y="1472" type="line"/>
      <point x="512" y="1472" type="line"/>
      <point x="512" y="1024" type="line"/>
    </contour>
  </outline>
</glyph>
<glyph name="numbersign" format="1">
  <advance width="1568"/>
  <unicode hex="0023"/>
  <outline>
    <contour>
      <point x="831" y="640" type="line"/>
      <point x="607" y="640" type="line"/>
      <point x="641" y="832" type="line"/>
      <point x="865" y="832" type="line"/>
    </contour>
    <contour>
      <point x="720" y="0" type="line"/>
      <point x="1120" y="0" type="line"/>
      <point x="1176" y="320" type="line"/>
      <point x="1408" y="320" type="line"/>
      <point x="1408" y="640" type="line"/>
      <point x="1231" y="640" type="line"/>
      <point x="1265" y="832" type="line"/>
      <point x="1472" y="832" type="line"/>
      <point x="1472" y="1152" type="line"/>
      <point x="1320" y="1152" type="line"/>
      <point x="1376" y="1472" type="line"/>
      <point x="976" y="1472" type="line"/>
      <point x="920" y="1152" type="line"/>
      <point x="696" y="1152" type="line"/>
      <point x="752" y="1472" type="line"/>
      <point x="352" y="1472" type="line"/>
      <point x="296" y="1152" type="line"/>
      <point x="64" y="1152" type="line"/>
      <point x="64" y="832" type="line"/>
      <point x="241" y="832" type="line"/>
      <point x="207" y="640" type="line"/>
      <point x="0" y="640" type="line"/>
      <point x="0" y="320" type="line"/>
      <point x="152" y="320" type="line"/>
      <point x="96" y="0" type="line"/>
      <point x="496" y="0" type="line"/>
      <point x="552" y="320" type="line"/>
      <point x="776" y="320" type="line"/>
    </contour>
  </outline>
</glyph>
<glyph name="ampersand" format="1">
  <advance width="1472"/>
  <unicode hex="0026"/>
  <outline>
    <contour>
      <point x="672" y="992" type="line" smooth="yes"/>
      <point x="648" y="1024"/>
      <point x="640" y="1072"/>
      <point x="640" y="1104" type="curve" smooth="yes"/>
      <point x="640" y="1152"/>
      <point x="656" y="1168"/>
      <point x="688" y="1168" type="curve" smooth="yes"/>
      <point x="720" y="1168"/>
      <point x="736" y="1152"/>
      <point x="736" y="1104" type="curve" smooth="yes"/>
      <point x="736" y="1072"/>
      <point x="728" y="1024"/>
      <point x="704" y="992" type="curve" smooth="yes"/>
      <point x="688" y="970" type="line"/>
    </contour>
    <contour>
      <point x="688" y="304" type="curve" smooth="yes"/>
      <point x="576" y="304"/>
      <point x="512" y="352"/>
      <point x="512" y="448" type="curve" smooth="yes"/>
      <point x="512" y="489"/>
      <point x="524" y="517"/>
      <point x="547" y="544" type="curve"/>
      <point x="728" y="305" type="line"/>
      <point x="715" y="304"/>
      <point x="702" y="304"/>
    </contour>
    <contour>
      <point x="960" y="0" type="line"/>
      <point x="1376" y="0" type="line"/>
      <point x="1220" y="220" type="line"/>
      <point x="1301" y="327"/>
      <point x="1344" y="454"/>
      <point x="1344" y="576" type="curve"/>
      <point x="967" y="576" type="line"/>
      <point x="856" y="732" type="line"/>
      <point x="896" y="756" type="line" smooth="yes"/>
      <point x="1040" y="840"/>
      <point x="1152" y="944"/>
      <point x="1152" y="1104" type="curve" smooth="yes"/>
      <point x="1152" y="1344"/>
      <point x="944" y="1504"/>
      <point x="688" y="1504" type="curve" smooth="yes"/>
      <point x="400" y="1504"/>
      <point x="224" y="1344"/>
      <point x="224" y="1104" type="curve" smooth="yes"/>
      <point x="224" y="1008"/>
      <point x="288" y="888"/>
      <point x="352" y="800" type="curve"/>
      <point x="211" y="747"/>
      <point x="96" y="630"/>
      <point x="96" y="448" type="curve" smooth="yes"/>
      <point x="96" y="128"/>
      <point x="368" y="-32"/>
      <point x="688" y="-32" type="curve" smooth="yes"/>
      <point x="785" y="-32"/>
      <point x="872" y="-15"/>
      <point x="948" y="15" type="curve"/>
    </contour>
  </outline>
</glyph>
<glyph name="quotesingle" format="1">
  <advance width="448"/>
  <unicode hex="0027"/>
  <outline>
    <contour>
      <point x="384" y="1024" type="line"/>
      <point x="384" y="1472" type="line"/>
      <point x="64" y="1472" type="line"/>
      <point x="64" y="960" type="line"/>
    </contour>
  </outline>
</glyph>
<glyph name="parenleft" format="1">
  <advance width="608"/>
  <unicode hex="0028"/>
  <outline>
    <contour>
      <point x="144" y="1472" type="line"/>
      <point x="0" y="1184"/>
      <point x="-64" y="928"/>
      <point x="-64" y="640" type="curve" smooth="yes"/>
      <point x="-64" y="352"/>
      <point x="0" y="96"/>
      <point x="144" y="-192" type="curve"/>
      <point x="544" y="-192" type="line"/>
      <point x="400" y="96"/>
      <point x="336" y="352"/>
      <point x="336" y="640" type="curve" smooth="yes"/>
      <point x="336" y="928"/>
      <point x="400" y="1184"/>
      <point x="544" y="1472" type="curve"/>
    </contour>
  </outline>
</glyph>
<glyph name="parenright" format="1">
  <advance width="608"/>
  <unicode hex="0029"/>
  <outline>
    <contour>
      <point x="336" y="1472" type="curve"/>
      <point x="-64" y="1472" type="line"/>
      <point x="80" y="1184"/>
      <point x="144" y="928"/>
      <point x="144" y="640" type="curve" smooth="yes"/>
      <point x="144" y="352"/>
      <point x="80" y="96"/>
      <point x="-64" y="-192" type="curve"/>
      <point x="336" y="-192" type="line"/>
      <point x="480" y="96"/>
      <point x="544" y="352"/>
      <point x="544" y="640" type="curve" smooth="yes"/>
      <point x="544" y="928"/>
      <point x="480" y="1184"/>
    </contour>
  </outline>
</glyph>
<glyph name="asterisk" format="1">
  <advance width="948"/>
  <unicode hex="002A"/>
  <outline>
    <contour>
      <point x="604" y="704" type="line"/>
      <point x="808" y="852" type="line"/>
      <point x="654" y="1030" type="line"/>
      <point x="884" y="1084" type="line"/>
      <point x="804" y="1328" type="line"/>
      <point x="588" y="1237" type="line"/>
      <point x="608" y="1472" type="line"/>
      <point x="352" y="1472" type="line"/>
      <point x="372" y="1237" type="line"/>
      <point x="156" y="1328" type="line"/>
      <point x="76" y="1084" type="line"/>
      <point x="306" y="1030" type="line"/>
      <point x="152" y="852" type="line"/>
      <point x="356" y="704" type="line"/>
      <point x="480" y="907" type="line"/>
    </contour>
  </outline>
</glyph>
<glyph name="comma" format="1">
  <advance width="496"/>
  <unicode hex="002C"/>
  <outline>
    <contour>
      <point x="416" y="-384" type="line"/>
      <point x="416" y="320" type="line"/>
      <point x="64" y="320" type="line"/>
      <point x="64" y="-320" type="line"/>
    </contour>
  </outline>
</glyph>
<glyph name="hyphen" format="1">
  <advance width="896"/>
  <unicode hex="002D"/>
  <outline>
    <contour>
      <point x="768" y="896" type="line"/>
      <point x="128" y="896" type="line"/>
      <point x="128" y="576" type="line"/>
      <point x="768" y="576" type="line"/>
    </contour>
  </outline>
</glyph>
<glyph name="slash" format="1">
  <advance width="928"/>
  <unicode hex="002F"/>
  <outline>
    <contour>
      <point x="768" y="1472" type="line"/>
      <point x="384" y="1472" type="line"/>
      <point x="64" y="0" type="line"/>
      <point x="448" y="0" type="line"/>
    </contour>
  </outline>
</glyph>
<glyph name="one" format="1">
  <advance width="720"/>
  <unicode hex="0031"/>
  <outline>
    <contour>
      <point x="608" y="0" type="line"/>
      <point x="608" y="1472" type="line"/>
      <point x="32" y="1472" type="line"/>
      <point x="32" y="1152" type="line"/>
      <point x="192" y="1152" type="line"/>
      <point x="192" y="0" type="line"/>
    </contour>
  </outline>
</glyph>
<glyph name="two" format="1">
  <advance width="1024"/>
  <unicode hex="0032"/>
  <outline>
    <contour>
      <point x="928" y="0" type="line"/>
      <point x="928" y="320" type="line"/>
      <point x="624" y="320" type="line"/>
      <point x="816" y="576" type="line" smooth="yes"/>
      <point x="896" y="684"/>
      <point x="960" y="768"/>
      <point x="960" y="992" type="curve" smooth="yes"/>
      <point x="960" y="1248"/>
      <point x="768" y="1504"/>
      <point x="480" y="1504" type="curve" smooth="yes"/>
      <point x="320" y="1504"/>
      <point x="160" y="1440"/>
      <point x="96" y="1408" type="curve"/>
      <point x="96" y="1056" type="line"/>
      <point x="192" y="1120"/>
      <point x="304" y="1152"/>
      <point x="416" y="1152" type="curve" smooth="yes"/>
      <point x="544" y="1152"/>
      <point x="608" y="1056"/>
      <point x="608" y="960" type="curve" smooth="yes"/>
      <point x="608" y="848"/>
      <point x="512" y="756"/>
      <point x="384" y="576" type="curve" smooth="yes"/>
      <point x="96" y="192" type="line"/>
      <point x="96" y="0" type="line"/>
    </contour>
  </outline>
</glyph>
<glyph name="four" format="1">
  <advance width="1148"/>
  <unicode hex="0034"/>
  <outline>
    <contour>
      <point x="1020" y="0" type="line"/>
      <point x="1020" y="704" type="line"/>
      <point x="640" y="704" type="line"/>
      <point x="640" y="576" type="line"/>
      <point x="531" y="576" type="line"/>
      <point x="768" y="1472" type="line"/>
      <point x="368" y="1472" type="line"/>
      <point x="80" y="384" type="line"/>
      <point x="80" y="256" type="line"/>
      <point x="640" y="256" type="line"/>
      <point x="640" y="0" type="line"/>
    </contour>
  </outline>
</glyph>
<glyph name="five" format="1">
  <advance width="1088"/>
  <unicode hex="0035"/>
  <outline>
    <contour>
      <point x="384" y="-32" type="curve" smooth="yes"/>
      <point x="704" y="-32"/>
      <point x="992" y="160"/>
      <point x="992" y="544" type="curve" smooth="yes"/>
      <point x="992" y="894"/>
      <point x="753" y="1005"/>
      <point x="469" y="1022" type="curve"/>
      <point x="512" y="1152" type="line"/>
      <point x="928" y="1152" type="line"/>
      <point x="928" y="1472" type="line"/>
      <point x="272" y="1472" type="line"/>
      <point x="96" y="1028" type="line"/>
      <point x="96" y="768" type="line"/>
      <point x="224" y="768" type="line" smooth="yes"/>
      <point x="492" y="768"/>
      <point x="576" y="720"/>
      <point x="576" y="544" type="curve" smooth="yes"/>
      <point x="576" y="368"/>
      <point x="460" y="320"/>
      <point x="320" y="320" type="curve" smooth="yes"/>
      <point x="224" y="320"/>
      <point x="160" y="352"/>
      <point x="96" y="384" type="curve"/>
      <point x="96" y="32" type="line"/>
      <point x="160" y="0"/>
      <point x="256" y="-32"/>
    </contour>
  </outline>
</glyph>
<glyph name="six" format="1">
  <advance width="1184"/>
  <unicode hex="0036"/>
  <outline>
    <contour>
      <point x="592" y="-32" type="curve" smooth="yes"/>
      <point x="848" y="-32"/>
      <point x="1120" y="128"/>
      <point x="1120" y="448" type="curve" smooth="yes"/>
      <point x="1120" y="736"/>
      <point x="887" y="894"/>
      <point x="630" y="877" type="curve"/>
      <point x="928" y="1472" type="line"/>
      <point x="512" y="1472" type="line"/>
      <point x="192" y="832" type="line" smooth="yes"/>
      <point x="144" y="736"/>
      <point x="64" y="592"/>
      <point x="64" y="448" type="curve" smooth="yes"/>
      <point x="64" y="128"/>
      <point x="336" y="-32"/>
    </contour>
    <contour>
      <point x="592" y="304" type="curve" smooth="yes"/>
      <point x="512" y="304"/>
      <point x="480" y="352"/>
      <point x="480" y="448" type="curve" smooth="yes"/>
      <point x="480" y="544"/>
      <point x="512" y="592"/>
      <point x="592" y="592" type="curve" smooth="yes"/>
      <point x="672" y="592"/>
      <point x="704" y="544"/>
      <point x="704" y="448" type="curve" smooth="yes"/>
      <point x="704" y="352"/>
      <point x="672" y="304"/>
    </contour>
  </outline>
</glyph>
<glyph name="seven" format="1">
  <advance width="1056"/>
  <unicode hex="0037"/>
  <outline>
    <contour>
      <point x="480" y="0" type="line"/>
      <point x="992" y="1344" type="line"/>
      <point x="992" y="1472" type="line"/>
      <point x="96" y="1472" type="line"/>
      <point x="96" y="1152" type="line"/>
      <point x="568" y="1152" type="line"/>
      <point x="64" y="0" type="line"/>
    </contour>
  </outline>
</glyph>
<glyph name="eight" format="1">
  <advance width="1184"/>
  <unicode hex="0038"/>
  <outline>
    <contour>
      <point x="592" y="-32" type="curve" smooth="yes"/>
      <point x="880" y="-32"/>
      <point x="1104" y="128"/>
      <point x="1104" y="480" type="curve" smooth="yes"/>
      <point x="1104" y="628"/>
      <point x="1028" y="728"/>
      <point x="918" y="789" type="curve"/>
      <point x="1012" y="850"/>
      <point x="1072" y="940"/>
      <point x="1072" y="1056" type="curve" smooth="yes"/>
      <point x="1072" y="1376"/>
      <point x="848" y="1472"/>
      <point x="592" y="1472" type="curve" smooth="yes"/>
      <point x="336" y="1472"/>
      <point x="112" y="1376"/>
      <point x="112" y="1056" type="curve" smooth="yes"/>
      <point x="112" y="940"/>
      <point x="172" y="850"/>
      <point x="266" y="789" type="curve"/>
      <point x="156" y="728"/>
      <point x="80" y="628"/>
      <point x="80" y="480" type="curve" smooth="yes"/>
      <point x="80" y="128"/>
      <point x="304" y="-32"/>
    </contour>
    <contour>
      <point x="592" y="896" type="curve" smooth="yes"/>
      <point x="512" y="896"/>
      <point x="496" y="960"/>
      <point x="496" y="1024" type="curve" smooth="yes"/>
      <point x="496" y="1088"/>
      <point x="512" y="1152"/>
      <point x="592" y="1152" type="curve" smooth="yes"/>
      <point x="672" y="1152"/>
      <point x="688" y="1088"/>
      <point x="688" y="1024" type="curve" smooth="yes"/>
      <point x="688" y="960"/>
      <point x="672" y="896"/>
    </contour>
    <contour>
      <point x="592" y="320" type="curve" smooth="yes"/>
      <point x="512" y="320"/>
      <point x="480" y="384"/>
      <point x="480" y="480" type="curve" smooth="yes"/>
      <point x="480" y="576"/>
      <point x="512" y="672"/>
      <point x="592" y="672" type="curve" smooth="yes"/>
      <point x="672" y="672"/>
      <point x="704" y="576"/>
      <point x="704" y="480" type="curve" smooth="yes"/>
      <point x="704" y="384"/>
      <point x="672" y="320"/>
    </contour>
  </outline>
</glyph>
<glyph name="nine" format="1">
  <advance width="1184"/>
  <unicode hex="0039"/>
  <outline>
    <contour>
      <point x="672" y="0" type="line"/>
      <point x="992" y="640" type="line" smooth="yes"/>
      <point x="1040" y="736"/>
      <point x="1120" y="880"/>
      <point x="1120" y="1024" type="curve" smooth="yes"/>
      <point x="1120" y="1344"/>
      <point x="848" y="1504"/>
      <point x="592" y="1504" type="curve" smooth="yes"/>
      <point x="336" y="1504"/>
      <point x="64" y="1344"/>
      <point x="64" y="1024" type="curve" smooth="yes"/>
      <point x="64" y="736"/>
      <point x="297" y="578"/>
      <point x="554" y="595" type="curve"/>
      <point x="256" y="0" type="line"/>
    </contour>
    <contour>
      <point x="592" y="1168" type="curve" smooth="yes"/>
      <point x="672" y="1168"/>
      <point x="704" y="1120"/>
      <point x="704" y="1024" type="curve" smooth="yes"/>
      <point x="704" y="928"/>
      <point x="672" y="880"/>
      <point x="592" y="880" type="curve" smooth="yes"/>
      <point x="512" y="880"/>
      <point x="480" y="928"/>
      <point x="480" y="1024" type="curve" smooth="yes"/>
      <point x="480" y="1120"/>
      <point x="512" y="1168"/>
    </contour>
  </outline>
</glyph>
<glyph name="colon" format="1">
  <advance width="496"/>
  <unicode hex="003A"/>
  <outline>
    <contour>
      <point x="384" y="704" type="line"/>
      <point x="384" y="1024" type="line"/>
      <point x="64" y="1024" type="line"/>
      <point x="64" y="704" type="line"/>
    </contour>
    <contour>
      <point x="384" y="0" type="line"/>
      <point x="384" y="320" type="line"/>
      <point x="64" y="320" type="line"/>
      <point x="64" y="0" type="line"/>
    </contour>
  </outline>
</glyph>
<glyph name="semicolon" format="1">
  <advance width="512"/>
  <unicode hex="003B"/>
  <outline>
    <contour>
      <point x="416" y="704" type="line"/>
      <point x="416" y="1024" type="line"/>
      <point x="64" y="1024" type="line"/>
      <point x="64" y="704" type="line"/>
    </contour>
    <contour>
      <point x="416" y="-384" type="line"/>
      <point x="416" y="320" type="line"/>
      <point x="64" y="320" type="line"/>
      <point x="64" y="-320" type="line"/>
    </contour>
  </outline>
</glyph>
<glyph name="question" format="1">
  <advance width="816"/>
  <unicode hex="003F"/>
  <outline>
    <contour>
      <point x="208" y="752" type="line" smooth="yes"/>
      <point x="144" y="688"/>
      <point x="128" y="608"/>
      <point x="128" y="512" type="curve" smooth="yes"/>
      <point x="128" y="448" type="line"/>
      <point x="544" y="448" type="line"/>
      <point x="544" y="512" type="line" smooth="yes"/>
      <point x="544" y="544"/>
      <point x="544" y="592"/>
      <point x="576" y="624" type="curve" smooth="yes"/>
      <point x="640" y="688" type="line" smooth="yes"/>
      <point x="752" y="800"/>
      <point x="784" y="896"/>
      <point x="784" y="1152" type="curve" smooth="yes"/>
      <point x="784" y="1376"/>
      <point x="576" y="1504"/>
      <point x="320" y="1504" type="curve" smooth="yes"/>
      <point x="240" y="1504"/>
      <point x="96" y="1488"/>
      <point x="0" y="1440" type="curve"/>
      <point x="0" y="1088" type="line"/>
      <point x="96" y="1152"/>
      <point x="144" y="1184"/>
      <point x="224" y="1184" type="curve" smooth="yes"/>
      <point x="320" y="1184"/>
      <point x="368" y="1120"/>
      <point x="368" y="1072" type="curve" smooth="yes"/>
      <point x="368" y="992"/>
      <point x="384" y="928"/>
      <point x="304" y="848" type="curve" smooth="yes"/>
    </contour>
    <contour>
      <point x="544" y="0" type="line"/>
      <point x="544" y="320" type="line"/>
      <point x="128" y="320" type="line"/>
      <point x="128" y="0" type="line"/>
    </contour>
  </outline>
</glyph>
<glyph name="A" format="1">
  <advance width="1280"/>
  <unicode hex="0041"/>
  <outline>
    <contour>
      <point x="721" y="512" type="line"/>
      <point x="527" y="512" type="line"/>
      <point x="624" y="1039" type="line"/>
    </contour>
    <contour>
      <point x="816" y="0" type="line"/>
      <point x="1248" y="0" type="line"/>
      <point x="928" y="1472" type="line"/>
      <point x="352" y="1472" type="line"/>
      <point x="32" y="0" type="line"/>
      <point x="432" y="0" type="line"/>
      <point x="467" y="192" type="line"/>
      <point x="781" y="192" type="line"/>
    </contour>
  </outline>
</glyph>
<glyph name="B" format="1">
  <advance width="1216"/>
  <unicode hex="0042"/>
  <outline>
    <contour>
      <point x="576" y="1152" type="line" smooth="yes"/>
      <point x="672" y="1152"/>
      <point x="704" y="1088"/>
      <point x="704" y="1024" type="curve" smooth="yes"/>
      <point x="704" y="960"/>
      <point x="672" y="896"/>
      <point x="576" y="896" type="curve" smooth="yes"/>
      <point x="512" y="896" type="line"/>
      <point x="512" y="1152" type="line"/>
    </contour>
    <contour>
      <point x="576" y="640" type="line" smooth="yes"/>
      <point x="672" y="640"/>
      <point x="736" y="576"/>
      <point x="736" y="480" type="curve" smooth="yes"/>
      <point x="736" y="384"/>
      <point x="672" y="320"/>
      <point x="576" y="320" type="curve" smooth="yes"/>
      <point x="512" y="320" type="line"/>
      <point x="512" y="640" type="line"/>
    </contour>
    <contour>
      <point x="96" y="0" type="line"/>
      <point x="544" y="0" type="line" smooth="yes"/>
      <point x="1120" y="0"/>
      <point x="1152" y="256"/>
      <point x="1152" y="480" type="curve" smooth="yes"/>
      <point x="1152" y="628"/>
      <point x="1077" y="728"/>
      <point x="952" y="786" type="curve"/>
      <point x="1036" y="838"/>
      <point x="1088" y="915"/>
      <point x="1088" y="1024" type="curve" smooth="yes"/>
      <point x="1088" y="1280"/>
      <point x="896" y="1472"/>
      <point x="544" y="1472" type="curve" smooth="yes"/>
      <point x="96" y="1472" type="line"/>
    </contour>
  </outline>
</glyph>
<glyph name="C" format="1">
  <advance width="896"/>
  <unicode hex="0043"/>
  <outline>
    <contour>
      <point x="864" y="32" type="curve"/>
      <point x="864" y="368" type="line"/>
      <point x="832" y="352"/>
      <point x="768" y="320"/>
      <point x="672" y="320" type="curve" smooth="yes"/>
      <point x="544" y="320"/>
      <point x="480" y="384"/>
      <point x="480" y="544" type="curve" smooth="yes"/>
      <point x="480" y="928" type="line" smooth="yes"/>
      <point x="480" y="1088"/>
      <point x="544" y="1152"/>
      <point x="672" y="1152" type="curve" smooth="yes"/>
      <point x="768" y="1152"/>
      <point x="832" y="1104"/>
      <point x="864" y="1088" type="curve"/>
      <point x="864" y="1440" type="line"/>
      <point x="800" y="1472"/>
      <point x="704" y="1504"/>
      <point x="576" y="1504" type="curve" smooth="yes"/>
      <point x="272" y="1504"/>
      <point x="64" y="1344"/>
      <point x="64" y="992" type="curve" smooth="yes"/>
      <point x="64" y="480" type="line" smooth="yes"/>
      <point x="64" y="128"/>
      <point x="272" y="-32"/>
      <point x="576" y="-32" type="curve" smooth="yes"/>
      <point x="704" y="-32"/>
      <point x="800" y="0"/>
    </contour>
  </outline>
</glyph>
<glyph name="D" format="1">
  <advance width="1184"/>
  <unicode hex="0044"/>
  <outline>
    <contour>
      <point x="512" y="320" type="curve"/>
      <point x="512" y="1152" type="line"/>
      <point x="640" y="1152"/>
      <point x="704" y="1088"/>
      <point x="704" y="960" type="curve" smooth="yes"/>
      <point x="704" y="512" type="line" smooth="yes"/>
      <point x="704" y="384"/>
      <point x="640" y="320"/>
    </contour>
    <contour>
      <point x="96" y="0" type="line"/>
      <point x="608" y="0" type="line" smooth="yes"/>
      <point x="864" y="0"/>
      <point x="1120" y="160"/>
      <point x="1120" y="480" type="curve" smooth="yes"/>
      <point x="1120" y="992" type="line" smooth="yes"/>
      <point x="1120" y="1312"/>
      <point x="864" y="1472"/>
      <point x="608" y="1472" type="curve" smooth="yes"/>
      <point x="96" y="1472" type="line"/>
    </contour>
  </outline>
</glyph>
<glyph name="E" format="1">
  <advance width="992"/>
  <unicode hex="0045"/>
  <outline>
    <contour>
      <point x="96" y="0" type="line"/>
      <point x="928" y="0" type="line"/>
      <point x="928" y="320" type="line"/>
      <point x="512" y="320" type="line"/>
      <point x="512" y="608" type="line"/>
      <point x="864" y="608" type="line"/>
      <point x="864" y="928" type="line"/>
      <point x="512" y="928" type="line"/>
      <point x="512" y="1152" type="line"/>
      <point x="928" y="1152" type="line"/>
      <point x="928" y="1472" type="line"/>
      <point x="96" y="1472" type="line"/>
    </contour>
  </outline>
</glyph>
<glyph name="F" format="1">
  <advance width="992"/>
  <unicode hex="0046"/>
  <outline>
    <contour>
      <point x="96" y="0" type="line"/>
      <point x="512" y="0" type="line"/>
      <point x="512" y="608" type="line"/>
      <point x="864" y="608" type="line"/>
      <point x="864" y="928" type="line"/>
      <point x="512" y="928" type="line"/>
      <point x="512" y="1152" type="line"/>
      <point x="928" y="1152" type="line"/>
      <point x="928" y="1472" type="line"/>
      <point x="96" y="1472" type="line"/>
    </contour>
  </outline>
</glyph>
<glyph name="G" format="1">
  <advance width="1088"/>
  <unicode hex="0047"/>
  <outline>
    <contour>
      <point x="1024" y="192" type="curve"/>
      <point x="1024" y="768" type="line"/>
      <point x="672" y="768" type="line"/>
      <point x="672" y="358" type="line"/>
      <point x="646" y="335"/>
      <point x="614" y="320"/>
      <point x="576" y="320" type="curve" smooth="yes"/>
      <point x="512" y="320"/>
      <point x="480" y="368"/>
      <point x="480" y="416" type="curve" smooth="yes"/>
      <point x="480" y="928" type="line" smooth="yes"/>
      <point x="480" y="1088"/>
      <point x="576" y="1152"/>
      <point x="704" y="1152" type="curve" smooth="yes"/>
      <point x="800" y="1152"/>
      <point x="928" y="1104"/>
      <point x="960" y="1088" type="curve"/>
      <point x="960" y="1440" type="line"/>
      <point x="896" y="1472"/>
      <point x="768" y="1504"/>
      <point x="640" y="1504" type="curve" smooth="yes"/>
      <point x="336" y="1504"/>
      <point x="64" y="1344"/>
      <point x="64" y="992" type="curve" smooth="yes"/>
      <point x="64" y="480" type="line" smooth="yes"/>
      <point x="64" y="128"/>
      <point x="272" y="-32"/>
      <point x="576" y="-32" type="curve" smooth="yes"/>
      <point x="752" y="-32"/>
      <point x="928" y="32"/>
    </contour>
  </outline>
</glyph>
<glyph name="H" format="1">
  <advance width="1216"/>
  <unicode hex="0048"/>
  <outline>
    <contour>
      <point x="96" y="0" type="line"/>
      <point x="512" y="0" type="line"/>
      <point x="512" y="608" type="line"/>
      <point x="704" y="608" type="line"/>
      <point x="704" y="0" type="line"/>
      <point x="1120" y="0" type="line"/>
      <point x="1120" y="1472" type="line"/>
      <point x="704" y="1472" type="line"/>
      <point x="704" y="928" type="line"/>
      <point x="512" y="928" type="line"/>
      <point x="512" y="1472" type="line"/>
      <point x="96" y="1472" type="line"/>
    </contour>
  </outline>
</glyph>
<glyph name="J" format="1">
  <advance width="792"/>
  <unicode hex="004A"/>
  <outline>
    <contour>
      <point x="224" y="-32" type="curve" smooth="yes"/>
      <point x="512" y="-32"/>
      <point x="704" y="160"/>
      <point x="704" y="480" type="curve" smooth="yes"/>
      <point x="704" y="1472" type="line"/>
      <point x="288" y="1472" type="line"/>
      <point x="288" y="416" type="line" smooth="yes"/>
      <point x="288" y="360"/>
      <point x="256" y="304"/>
      <point x="160" y="304" type="curve" smooth="yes"/>
      <point x="104" y="304"/>
      <point x="64" y="320"/>
      <point x="32" y="336" type="curve"/>
      <point x="32" y="32" type="line"/>
      <point x="64" y="0"/>
      <point x="176" y="-32"/>
    </contour>
  </outline>
</glyph>
<glyph name="K" format="1">
  <advance width="1184"/>
  <unicode hex="004B"/>
  <outline>
    <contour>
      <point x="704" y="0" type="line"/>
      <point x="1152" y="0" type="line"/>
      <point x="896" y="800" type="line"/>
      <point x="1152" y="1472" type="line"/>
      <point x="768" y="1472" type="line"/>
      <point x="512" y="800" type="line"/>
      <point x="512" y="1472" type="line"/>
      <point x="96" y="1472" type="line"/>
      <point x="96" y="0" type="line"/>
      <point x="512" y="0" type="line"/>
      <point x="512" y="600" type="line"/>
    </contour>
  </outline>
</glyph>
<glyph name="L" format="1">
  <advance width="960"/>
  <unicode hex="004C"/>
  <outline>
    <contour>
      <point x="96" y="0" type="line"/>
      <point x="928" y="0" type="line"/>
      <point x="928" y="320" type="line"/>
      <point x="512" y="320" type="line"/>
      <point x="512" y="1472" type="line"/>
      <point x="96" y="1472" type="line"/>
    </contour>
  </outline>
</glyph>
<glyph name="M" format="1">
  <advance width="1408"/>
  <unicode hex="004D"/>
  <outline>
    <contour>
      <point x="704" y="968" type="line"/>
      <point x="416" y="1472" type="line"/>
      <point x="96" y="1472" type="line"/>
      <point x="96" y="0" type="line"/>
      <point x="512" y="0" type="line"/>
      <point x="512" y="768" type="line"/>
      <point x="704" y="448" type="line"/>
      <point x="896" y="768" type="line"/>
      <point x="896" y="0" type="line"/>
      <point x="1312" y="0" type="line"/>
      <point x="1312" y="1472" type="line"/>
      <point x="992" y="1472" type="line"/>
    </contour>
  </outline>
</glyph>
<glyph name="N" format="1">
  <advance width="1216"/>
  <unicode hex="004E"/>
  <outline>
    <contour>
      <point x="512" y="640" type="line"/>
      <point x="768" y="0" type="line"/>
      <point x="1120" y="0" type="line"/>
      <point x="1120" y="1472" type="line"/>
      <point x="704" y="1472" type="line"/>
      <point x="704" y="832" type="line"/>
      <point x="448" y="1472" type="line"/>
      <point x="96" y="1472" type="line"/>
      <point x="96" y="0" type="line"/>
      <point x="512" y="0" type="line"/>
    </contour>
  </outline>
</glyph>
<glyph name="O" format="1">
  <advance width="1152"/>
  <unicode hex="004F"/>
  <outline>
    <contour>
      <point x="1088" y="480" type="curve" smooth="yes"/>
      <point x="1088" y="992" type="line" smooth="yes"/>
      <point x="1088" y="1312"/>
      <point x="896" y="1504"/>
      <point x="576" y="1504" type="curve" smooth="yes"/>
      <point x="256" y="1504"/>
      <point x="64" y="1312"/>
      <point x="64" y="992" type="curve" smooth="yes"/>
      <point x="64" y="480" type="line" smooth="yes"/>
      <point x="64" y="160"/>
      <point x="256" y="-32"/>
      <point x="576" y="-32" type="curve" smooth="yes"/>
      <point x="896" y="-32"/>
      <point x="1088" y="160"/>
    </contour>
    <contour>
      <point x="672" y="1056" type="curve" smooth="yes"/>
      <point x="672" y="416" type="line" smooth="yes"/>
      <point x="672" y="360"/>
      <point x="632" y="320"/>
      <point x="576" y="320" type="curve" smooth="yes"/>
      <point x="520" y="320"/>
      <point x="480" y="360"/>
      <point x="480" y="416" type="curve" smooth="yes"/>
      <point x="480" y="1056" type="line" smooth="yes"/>
      <point x="480" y="1112"/>
      <point x="520" y="1152"/>
      <point x="576" y="1152" type="curve" smooth="yes"/>
      <point x="632" y="1152"/>
      <point x="672" y="1112"/>
    </contour>
  </outline>
</glyph>
<glyph name="P" format="1">
  <advance width="1184"/>
  <unicode hex="0050"/>
  <outline>
    <contour>
      <point x="512" y="768" type="curve"/>
      <point x="512" y="1152" type="line"/>
      <point x="640" y="1152"/>
      <point x="704" y="1088"/>
      <point x="704" y="960" type="curve" smooth="yes"/>
      <point x="704" y="832"/>
      <point x="640" y="768"/>
    </contour>
    <contour>
      <point x="608" y="448" type="line" smooth="yes"/>
      <point x="864" y="448"/>
      <point x="1120" y="608"/>
      <point x="1120" y="928" type="curve" smooth="yes"/>
      <point x="1120" y="992" type="line" smooth="yes"/>
      <point x="1120" y="1312"/>
      <point x="864" y="1472"/>
      <point x="608" y="1472" type="curve" smooth="yes"/>
      <point x="96" y="1472" type="line"/>
      <point x="96" y="0" type="line"/>
      <point x="512" y="0" type="line"/>
      <point x="512" y="448" type="line"/>
    </contour>
  </outline>
</glyph>
<glyph name="R" format="1">
  <advance width="1216"/>
  <unicode hex="0052"/>
  <outline>
    <contour>
      <point x="544" y="1152" type="line" smooth="yes"/>
      <point x="672" y="1152"/>
      <point x="736" y="1088"/>
      <point x="736" y="960" type="curve" smooth="yes"/>
      <point x="736" y="832"/>
      <point x="672" y="768"/>
      <point x="544" y="768" type="curve" smooth="yes"/>
      <point x="512" y="768" type="line"/>
      <point x="512" y="1152" type="line"/>
    </contour>
    <contour>
      <point x="736" y="0" type="line"/>
      <point x="1152" y="0" type="line"/>
      <point x="967" y="549" type="line"/>
      <point x="1077" y="628"/>
      <point x="1152" y="755"/>
      <point x="1152" y="928" type="curve" smooth="yes"/>
      <point x="1152" y="992" type="line" smooth="yes"/>
      <point x="1152" y="1312"/>
      <point x="896" y="1472"/>
      <point x="640" y="1472" type="curve" smooth="yes"/>
      <point x="96" y="1472" type="line"/>
      <point x="96" y="0" type="line"/>
      <point x="512" y="0" type="line"/>
      <point x="512" y="448" type="line"/>
      <point x="619" y="448" type="line"/>
    </contour>
  </outline>
</glyph>
<glyph name="S" format="1">
  <advance width="960"/>
  <unicode hex="0053"/>
  <outline>
    <contour>
      <point x="384" y="560" type="line" smooth="yes"/>
      <point x="464" y="480"/>
      <point x="512" y="432"/>
      <point x="512" y="384" type="curve" smooth="yes"/>
      <point x="512" y="340"/>
      <point x="496" y="288"/>
      <point x="384" y="288" type="curve" smooth="yes"/>
      <point x="292" y="288"/>
      <point x="160" y="320"/>
      <point x="96" y="352" type="curve"/>
      <point x="96" y="32" type="line"/>
      <point x="160" y="0"/>
      <point x="304" y="-32"/>
      <point x="416" y="-32" type="curve" smooth="yes"/>
      <point x="688" y="-32"/>
      <point x="928" y="76"/>
      <point x="928" y="384" type="curve" smooth="yes"/>
      <point x="928" y="576"/>
      <point x="800" y="688"/>
      <point x="736" y="752" type="curve" smooth="yes"/>
      <point x="576" y="912" type="line" smooth="yes"/>
      <point x="508" y="980"/>
      <point x="448" y="1024"/>
      <point x="448" y="1088" type="curve" smooth="yes"/>
      <point x="448" y="1148"/>
      <point x="472" y="1184"/>
      <point x="544" y="1184" type="curve" smooth="yes"/>
      <point x="692" y="1184"/>
      <point x="800" y="1152"/>
      <point x="864" y="1120" type="curve"/>
      <point x="864" y="1440" type="line"/>
      <point x="800" y="1472"/>
      <point x="688" y="1504"/>
      <point x="512" y="1504" type="curve" smooth="yes"/>
      <point x="288" y="1504"/>
      <point x="32" y="1424"/>
      <point x="32" y="1088" type="curve" smooth="yes"/>
      <point x="32" y="928"/>
      <point x="128" y="816"/>
      <point x="224" y="720" type="curve" smooth="yes"/>
    </contour>
  </outline>
</glyph>
<glyph name="T" format="1">
  <advance width="1024"/>
  <unicode hex="0054"/>
  <outline>
    <contour>
      <point x="720" y="0" type="line"/>
      <point x="720" y="1152" type="line"/>
      <point x="992" y="1152" type="line"/>
      <point x="992" y="1472" type="line"/>
      <point x="32" y="1472" type="line"/>
      <point x="32" y="1152" type="line"/>
      <point x="304" y="1152" type="line"/>
      <point x="304" y="0" type="line"/>
    </contour>
  </outline>
</glyph>
<glyph name="U" format="1">
  <advance width="1200"/>
  <unicode hex="0055"/>
  <outline>
    <contour>
      <point x="88" y="1472" type="line"/>
      <point x="88" y="480" type="line" smooth="yes"/>
      <point x="88" y="160"/>
      <point x="280" y="-32"/>
      <point x="600" y="-32" type="curve" smooth="yes"/>
      <point x="920" y="-32"/>
      <point x="1112" y="160"/>
      <point x="1112" y="480" type="curve" smooth="yes"/>
      <point x="1112" y="1472" type="line"/>
      <point x="696" y="1472" type="line"/>
      <point x="696" y="416" type="line" smooth="yes"/>
      <point x="696" y="360"/>
      <point x="656" y="320"/>
      <point x="600" y="320" type="curve" smooth="yes"/>
      <point x="544" y="320"/>
      <point x="504" y="360"/>
      <point x="504" y="416" type="curve" smooth="yes"/>
      <point x="504" y="1472" type="line"/>
    </contour>
  </outline>
</glyph>
<glyph name="V" format="1">
  <advance width="1280"/>
  <unicode hex="0056"/>
  <outline>
    <contour>
      <point x="352" y="0" type="line"/>
      <point x="928" y="0" type="line"/>
      <point x="1248" y="1472" type="line"/>
      <point x="848" y="1472" type="line"/>
      <point x="656" y="433" type="line"/>
      <point x="464" y="1472" type="line"/>
      <point x="32" y="1472" type="line"/>
    </contour>
  </outline>
</glyph>
<glyph name="W" format="1">
  <advance width="1856"/>
  <unicode hex="0057"/>
  <outline>
    <contour>
      <point x="352" y="0" type="line"/>
      <point x="800" y="0" type="line"/>
      <point x="911" y="638" type="line"/>
      <point x="1008" y="0" type="line"/>
      <point x="1504" y="0" type="line"/>
      <point x="1824" y="1472" type="line"/>
      <point x="1440" y="1472" type="line"/>
      <point x="1259" y="491" type="line"/>
      <point x="1120" y="1472" type="line"/>
      <point x="784" y="1472" type="line"/>
      <point x="645" y="491" type="line"/>
      <point x="464" y="1472" type="line"/>
      <point x="32" y="1472" type="line"/>
    </contour>
  </outline>
</glyph>
<glyph name="X" format="1">
  <advance width="1184"/>
  <unicode hex="0058"/>
  <outline>
    <contour>
      <point x="704" y="0" type="line"/>
      <point x="1152" y="0" type="line"/>
      <point x="864" y="768" type="line"/>
      <point x="1152" y="1472" type="line"/>
      <point x="768" y="1472" type="line"/>
      <point x="620" y="1088" type="line"/>
      <point x="480" y="1472" type="line"/>
      <point x="32" y="1472" type="line"/>
      <point x="320" y="768" type="line"/>
      <point x="32" y="0" type="line"/>
      <point x="416" y="0" type="line"/>
      <point x="564" y="419" type="line"/>
    </contour>
  </outline>
</glyph>
<glyph name="Y" format="1">
  <advance width="1152"/>
  <unicode hex="0059"/>
  <outline>
    <contour>
      <point x="784" y="576" type="line"/>
      <point x="1144" y="1472" type="line"/>
      <point x="728" y="1472" type="line"/>
      <point x="578" y="992" type="line"/>
      <point x="432" y="1472" type="line"/>
      <point x="0" y="1472" type="line"/>
      <point x="368" y="576" type="line"/>
      <point x="368" y="0" type="line"/>
      <point x="784" y="0" type="line"/>
    </contour>
  </outline>
</glyph>
<glyph name="Z" format="1">
  <advance width="992"/>
  <unicode hex="005A"/>
  <outline>
    <contour>
      <point x="64" y="320" type="line"/>
      <point x="64" y="0" type="line"/>
      <point x="928" y="0" type="line"/>
      <point x="928" y="320" type="line"/>
      <point x="480" y="320" type="line"/>
      <point x="928" y="1152" type="line"/>
      <point x="928" y="1472" type="line"/>
      <point x="64" y="1472" type="line"/>
      <point x="64" y="1152" type="line"/>
      <point x="512" y="1152" type="line"/>
    </contour>
  </outline>
</glyph>
<glyph name="backslash" format="1">
  <advance width="928"/>
  <unicode hex="005C"/>
  <outline>
    <contour>
      <point x="64" y="1472" type="line"/>
      <point x="384" y="0" type="line"/>
      <point x="768" y="0" type="line"/>
      <point x="448" y="1472" type="line"/>
    </contour>
  </outline>
</glyph>
<glyph name="a" format="1">
  <advance width="1040"/>
  <unicode hex="0061"/>
  <outline>
    <contour>
      <point x="488" y="256" type="curve" smooth="yes"/>
      <point x="432" y="256"/>
      <point x="416" y="304"/>
      <point x="416" y="352" type="curve" smooth="yes"/>
      <point x="416" y="400"/>
      <point x="432" y="448"/>
      <point x="488" y="448" type="curve" smooth="yes"/>
      <point x="560" y="448" type="line"/>
      <point x="560" y="352" type="line" smooth="yes"/>
      <point x="560" y="304"/>
      <point x="544" y="256"/>
    </contour>
    <contour>
      <point x="656" y="0" type="line"/>
      <point x="960" y="0" type="line"/>
      <point x="960" y="608" type="line" smooth="yes"/>
      <point x="960" y="896"/>
      <point x="752" y="1056"/>
      <point x="480" y="1056" type="curve" smooth="yes"/>
      <point x="320" y="1056"/>
      <point x="208" y="992"/>
      <point x="160" y="944" type="curve"/>
      <point x="160" y="704" type="line"/>
      <point x="224" y="736"/>
      <point x="320" y="752"/>
      <point x="384" y="752" type="curve" smooth="yes"/>
      <point x="512" y="752"/>
      <point x="560" y="704"/>
      <point x="560" y="640" type="curve"/>
      <point x="384" y="640" type="line" smooth="yes"/>
      <point x="160" y="640"/>
      <point x="64" y="496"/>
      <point x="64" y="320" type="curve" smooth="yes"/>
      <point x="64" y="144"/>
      <point x="160" y="-32"/>
      <point x="384" y="-32" type="curve" smooth="yes"/>
      <point x="478" y="-32"/>
      <point x="556" y="23"/>
      <point x="604" y="105" type="curve"/>
    </contour>
  </outline>
</glyph>
<glyph name="b" format="1">
  <advance width="1104"/>
  <unicode hex="0062"/>
  <outline>
    <contour>
      <point x="712" y="-32" type="curve" smooth="yes"/>
      <point x="872" y="-32"/>
      <point x="1040" y="96"/>
      <point x="1040" y="320" type="curve" smooth="yes"/>
      <point x="1040" y="704" type="line" smooth="yes"/>
      <point x="1040" y="928"/>
      <point x="872" y="1056"/>
      <point x="712" y="1056" type="curve" smooth="yes"/>
      <point x="618" y="1056"/>
      <point x="547" y="1025"/>
      <point x="496" y="977" type="curve"/>
      <point x="496" y="1536" type="line"/>
      <point x="96" y="1472" type="line"/>
      <point x="96" y="0" type="line"/>
      <point x="392" y="0" type="line"/>
      <point x="447" y="109" type="line"/>
      <point x="497" y="26"/>
      <point x="583" y="-32"/>
    </contour>
    <contour>
      <point x="568" y="272" type="curve" smooth="yes"/>
      <point x="520" y="272"/>
      <point x="496" y="304"/>
      <point x="496" y="352" type="curve" smooth="yes"/>
      <point x="496" y="672" type="line" smooth="yes"/>
      <point x="496" y="720"/>
      <point x="520" y="752"/>
      <point x="568" y="752" type="curve" smooth="yes"/>
      <point x="616" y="752"/>
      <point x="640" y="720"/>
      <point x="640" y="672" type="curve" smooth="yes"/>
      <point x="640" y="352" type="line" smooth="yes"/>
      <point x="640" y="304"/>
      <point x="616" y="272"/>
    </contour>
  </outline>
</glyph>
<glyph name="c" format="1">
  <advance width="800"/>
  <unicode hex="0063"/>
  <outline>
    <contour>
      <point x="64" y="640" type="curve" smooth="yes"/>
      <point x="64" y="384" type="line" smooth="yes"/>
      <point x="64" y="128"/>
      <point x="272" y="-32"/>
      <point x="544" y="-32" type="curve" smooth="yes"/>
      <point x="640" y="-32"/>
      <point x="720" y="0"/>
      <point x="752" y="16" type="curve"/>
      <point x="752" y="320" type="line"/>
      <point x="704" y="288"/>
      <point x="672" y="272"/>
      <point x="608" y="272" type="curve" smooth="yes"/>
      <point x="512" y="272"/>
      <point x="464" y="320"/>
      <point x="464" y="416" type="curve" smooth="yes"/>
      <point x="464" y="608" type="line" smooth="yes"/>
      <point x="464" y="704"/>
      <point x="512" y="752"/>
      <point x="608" y="752" type="curve" smooth="yes"/>
      <point x="672" y="752"/>
      <point x="704" y="736"/>
      <point x="752" y="704" type="curve"/>
      <point x="752" y="1008" type="line"/>
      <point x="720" y="1024"/>
      <point x="640" y="1056"/>
      <point x="544" y="1056" type="curve" smooth="yes"/>
      <point x="272" y="1056"/>
      <point x="64" y="896"/>
    </contour>
  </outline>
</glyph>
<glyph name="d" format="1">
  <advance width="1104"/>
  <unicode hex="0064"/>
  <outline>
    <contour>
      <point x="536" y="272" type="curve" smooth="yes"/>
      <point x="488" y="272"/>
      <point x="464" y="304"/>
      <point x="464" y="352" type="curve" smooth="yes"/>
      <point x="464" y="672" type="line" smooth="yes"/>
      <point x="464" y="720"/>
      <point x="488" y="752"/>
      <point x="536" y="752" type="curve" smooth="yes"/>
      <point x="584" y="752"/>
      <point x="608" y="720"/>
      <point x="608" y="672" type="curve" smooth="yes"/>
      <point x="608" y="352" type="line" smooth="yes"/>
      <point x="608" y="304"/>
      <point x="584" y="272"/>
    </contour>
    <contour>
      <point x="712" y="0" type="line"/>
      <point x="1008" y="0" type="line"/>
      <point x="1008" y="1536" type="line"/>
      <point x="608" y="1472" type="line"/>
      <point x="608" y="977" type="line"/>
      <point x="557" y="1025"/>
      <point x="486" y="1056"/>
      <point x="392" y="1056" type="curve" smooth="yes"/>
      <point x="232" y="1056"/>
      <point x="64" y="928"/>
      <point x="64" y="704" type="curve" smooth="yes"/>
      <point x="64" y="320" type="line" smooth="yes"/>
      <point x="64" y="96"/>
      <point x="232" y="-32"/>
      <point x="392" y="-32" type="curve" smooth="yes"/>
      <point x="521" y="-32"/>
      <point x="607" y="26"/>
      <point x="657" y="109" type="curve"/>
    </contour>
  </outline>
</glyph>
<glyph name="e" format="1">
  <advance width="992"/>
  <unicode hex="0065"/>
  <outline>
    <contour>
      <point x="464" y="656" type="line" smooth="yes"/>
      <point x="464" y="704"/>
      <point x="472" y="752"/>
      <point x="536" y="752" type="curve" smooth="yes"/>
      <point x="600" y="752"/>
      <point x="608" y="704"/>
      <point x="608" y="656" type="curve" smooth="yes"/>
      <point x="608" y="608" type="line"/>
      <point x="464" y="608" type="line"/>
    </contour>
    <contour>
      <point x="864" y="80" type="curve"/>
      <point x="864" y="320" type="line"/>
      <point x="800" y="288"/>
      <point x="704" y="272"/>
      <point x="608" y="272" type="curve" smooth="yes"/>
      <point x="512" y="272"/>
      <point x="464" y="320"/>
      <point x="464" y="416" type="curve"/>
      <point x="928" y="416" type="line"/>
      <point x="928" y="640" type="line" smooth="yes"/>
      <point x="928" y="896"/>
      <point x="792" y="1056"/>
      <point x="536" y="1056" type="curve" smooth="yes"/>
      <point x="280" y="1056"/>
      <point x="64" y="896"/>
      <point x="64" y="640" type="curve" smooth="yes"/>
      <point x="64" y="384" type="line" smooth="yes"/>
      <point x="64" y="128"/>
      <point x="272" y="-32"/>
      <point x="544" y="-32" type="curve" smooth="yes"/>
      <point x="704" y="-32"/>
      <point x="816" y="32"/>
    </contour>
  </outline>
</glyph>
<glyph name="f" format="1">
  <advance width="720"/>
  <unicode hex="0066"/>
  <outline>
    <contour>
      <point x="128" y="1120" type="curve" smooth="yes"/>
      <point x="128" y="1024" type="line"/>
      <point x="32" y="1024" type="line"/>
      <point x="32" y="704" type="line"/>
      <point x="128" y="704" type="line"/>
      <point x="128" y="0" type="line"/>
      <point x="528" y="0" type="line"/>
      <point x="528" y="704" type="line"/>
      <point x="688" y="704" type="line"/>
      <point x="688" y="1024" type="line"/>
      <point x="528" y="1024" type="line"/>
      <point x="528" y="1088" type="line" smooth="yes"/>
      <point x="528" y="1168"/>
      <point x="552" y="1216"/>
      <point x="600" y="1216" type="curve" smooth="yes"/>
      <point x="632" y="1216"/>
      <point x="672" y="1208"/>
      <point x="688" y="1200" type="curve"/>
      <point x="688" y="1472" type="line"/>
      <point x="656" y="1488"/>
      <point x="568" y="1504"/>
      <point x="488" y="1504" type="curve" smooth="yes"/>
      <point x="264" y="1504"/>
      <point x="128" y="1376"/>
    </contour>
  </outline>
</glyph>
<glyph name="g" format="1">
  <advance width="1104"/>
  <unicode hex="0067"/>
  <outline>
    <contour>
      <point x="536" y="272" type="curve" smooth="yes"/>
      <point x="488" y="272"/>
      <point x="464" y="304"/>
      <point x="464" y="352" type="curve" smooth="yes"/>
      <point x="464" y="672" type="line" smooth="yes"/>
      <point x="464" y="720"/>
      <point x="488" y="752"/>
      <point x="536" y="752" type="curve" smooth="yes"/>
      <point x="584" y="752"/>
      <point x="608" y="720"/>
      <point x="608" y="672" type="curve" smooth="yes"/>
      <point x="608" y="352" type="line" smooth="yes"/>
      <point x="608" y="304"/>
      <point x="584" y="272"/>
    </contour>
    <contour>
      <point x="512" y="-448" type="curve" smooth="yes"/>
      <point x="784" y="-448"/>
      <point x="1008" y="-288"/>
      <point x="1008" y="0" type="curve" smooth="yes"/>
      <point x="1008" y="1024" type="line"/>
      <point x="712" y="1024" type="line"/>
      <point x="657" y="915" type="line"/>
      <point x="607" y="998"/>
      <point x="521" y="1056"/>
      <point x="392" y="1056" type="curve" smooth="yes"/>
      <point x="232" y="1056"/>
      <point x="64" y="928"/>
      <point x="64" y="704" type="curve" smooth="yes"/>
      <point x="64" y="352" type="line" smooth="yes"/>
      <point x="64" y="128"/>
      <point x="232" y="0"/>
      <point x="392" y="0" type="curve" smooth="yes"/>
      <point x="486" y="0"/>
      <point x="557" y="25"/>
      <point x="608" y="67" type="curve"/>
      <point x="608" y="-32" type="line" smooth="yes"/>
      <point x="608" y="-96"/>
      <point x="544" y="-144"/>
      <point x="416" y="-144" type="curve" smooth="yes"/>
      <point x="352" y="-144"/>
      <point x="224" y="-128"/>
      <point x="160" y="-96" type="curve"/>
      <point x="160" y="-336" type="line"/>
      <point x="208" y="-384"/>
      <point x="352" y="-448"/>
    </contour>
  </outline>
</glyph>
<glyph name="h" format="1">
  <advance width="1120"/>
  <unicode hex="0068"/>
  <outline>
    <contour>
      <point x="496" y="672" type="line" smooth="yes"/>
      <point x="496" y="720"/>
      <point x="520" y="752"/>
      <point x="568" y="752" type="curve" smooth="yes"/>
      <point x="616" y="752"/>
      <point x="640" y="720"/>
      <point x="640" y="672" type="curve" smooth="yes"/>
      <point x="640" y="0" type="line"/>
      <point x="1040" y="0" type="line"/>
      <point x="1040" y="704" type="line" smooth="yes"/>
      <point x="1040" y="928"/>
      <point x="872" y="1056"/>
      <point x="712" y="1056" type="curve" smooth="yes"/>
      <point x="618" y="1056"/>
      <point x="547" y="1025"/>
      <point x="496" y="977" type="curve"/>
      <point x="496" y="1536" type="line"/>
      <point x="96" y="1472" type="line"/>
      <point x="96" y="0" type="line"/>
      <point x="496" y="0" type="line"/>
    </contour>
  </outline>
</glyph>
<glyph name="i" format="1">
  <advance width="592"/>
  <unicode hex="0069"/>
  <outline>
    <contour>
      <point x="496" y="1152" type="line"/>
      <point x="496" y="1472" type="line"/>
      <point x="96" y="1472" type="line"/>
      <point x="96" y="1152" type="line"/>
    </contour>
    <contour>
      <point x="496" y="0" type="line"/>
      <point x="496" y="1024" type="line"/>
      <point x="96" y="1024" type="line"/>
      <point x="96" y="0" type="line"/>
    </contour>
  </outline>
</glyph>
<glyph name="j" format="1">
  <advance width="592"/>
  <unicode hex="006A"/>
  <outline>
    <contour>
      <point x="496" y="1152" type="line"/>
      <point x="496" y="1472" type="line"/>
      <point x="96" y="1472" type="line"/>
      <point x="96" y="1152" type="line"/>
    </contour>
    <contour>
      <point x="496" y="-384" type="line"/>
      <point x="496" y="1024" type="line"/>
      <point x="96" y="1024" type="line"/>
      <point x="96" y="-448" type="line"/>
    </contour>
  </outline>
</glyph>
<glyph name="k" format="1">
  <advance width="1104"/>
  <unicode hex="006B"/>
  <outline>
    <contour>
      <point x="640" y="0" type="line"/>
      <point x="1056" y="0" type="line"/>
      <point x="880" y="512" type="line"/>
      <point x="1056" y="1024" type="line"/>
      <point x="672" y="1024" type="line"/>
      <point x="496" y="512" type="line"/>
      <point x="496" y="1536" type="line"/>
      <point x="96" y="1472" type="line"/>
      <point x="96" y="0" type="line"/>
      <point x="496" y="0" type="line"/>
      <point x="496" y="354" type="line"/>
    </contour>
  </outline>
</glyph>
<glyph name="m" format="1">
  <advance width="1664"/>
  <unicode hex="006D"/>
  <outline>
    <contour>
      <point x="496" y="672" type="line" smooth="yes"/>
      <point x="496" y="720"/>
      <point x="520" y="752"/>
      <point x="568" y="752" type="curve" smooth="yes"/>
      <point x="616" y="752"/>
      <point x="640" y="720"/>
      <point x="640" y="672" type="curve" smooth="yes"/>
      <point x="640" y="0" type="line"/>
      <point x="1040" y="0" type="line"/>
      <point x="1040" y="672" type="line" smooth="yes"/>
      <point x="1040" y="720"/>
      <point x="1064" y="752"/>
      <point x="1112" y="752" type="curve" smooth="yes"/>
      <point x="1160" y="752"/>
      <point x="1184" y="720"/>
      <point x="1184" y="672" type="curve" smooth="yes"/>
      <point x="1184" y="0" type="line"/>
      <point x="1584" y="0" type="line"/>
      <point x="1584" y="704" type="line" smooth="yes"/>
      <point x="1584" y="928"/>
      <point x="1416" y="1056"/>
      <point x="1256" y="1056" type="curve" smooth="yes"/>
      <point x="1122" y="1056"/>
      <point x="1034" y="993"/>
      <point x="985" y="905" type="curve"/>
      <point x="922" y="1003"/>
      <point x="815" y="1056"/>
      <point x="712" y="1056" type="curve" smooth="yes"/>
      <point x="583" y="1056"/>
      <point x="497" y="998"/>
      <point x="447" y="915" type="curve"/>
      <point x="392" y="1024" type="line"/>
      <point x="96" y="1024" type="line"/>
      <point x="96" y="0" type="line"/>
      <point x="496" y="0" type="line"/>
    </contour>
  </outline>
</glyph>
<glyph name="n" format="1">
  <advance width="1120"/>
  <unicode hex="006E"/>
  <outline>
    <contour>
      <point x="496" y="672" type="line" smooth="yes"/>
      <point x="496" y="720"/>
      <point x="520" y="752"/>
      <point x="568" y="752" type="curve" smooth="yes"/>
      <point x="616" y="752"/>
      <point x="640" y="720"/>
      <point x="640" y="672" type="curve" smooth="yes"/>
      <point x="640" y="0" type="line"/>
      <point x="1040" y="0" type="line"/>
      <point x="1040" y="704" type="line" smooth="yes"/>
      <point x="1040" y="928"/>
      <point x="872" y="1056"/>
      <point x="712" y="1056" type="curve" smooth="yes"/>
      <point x="583" y="1056"/>
      <point x="497" y="998"/>
      <point x="447" y="915" type="curve"/>
      <point x="392" y="1024" type="line"/>
      <point x="96" y="1024" type="line"/>
      <point x="96" y="0" type="line"/>
      <point x="496" y="0" type="line"/>
    </contour>
  </outline>
</glyph>
<glyph name="o" format="1">
  <advance width="1072"/>
  <unicode hex="006F"/>
  <outline>
    <contour>
      <point x="1008" y="384" type="curve" smooth="yes"/>
      <point x="1008" y="640" type="line" smooth="yes"/>
      <point x="1008" y="896"/>
      <point x="792" y="1056"/>
      <point x="536" y="1056" type="curve" smooth="yes"/>
      <point x="280" y="1056"/>
      <point x="64" y="896"/>
      <point x="64" y="640" type="curve" smooth="yes"/>
      <point x="64" y="384" type="line" smooth="yes"/>
      <point x="64" y="128"/>
      <point x="280" y="-32"/>
      <point x="536" y="-32" type="curve" smooth="yes"/>
      <point x="792" y="-32"/>
      <point x="1008" y="128"/>
    </contour>
    <contour>
      <point x="464" y="368" type="curve" smooth="yes"/>
      <point x="464" y="656" type="line" smooth="yes"/>
      <point x="464" y="704"/>
      <point x="472" y="752"/>
      <point x="536" y="752" type="curve" smooth="yes"/>
      <point x="600" y="752"/>
      <point x="608" y="704"/>
      <point x="608" y="656" type="curve" smooth="yes"/>
      <point x="608" y="368" type="line" smooth="yes"/>
      <point x="608" y="320"/>
      <point x="600" y="272"/>
      <point x="536" y="272" type="curve" smooth="yes"/>
      <point x="472" y="272"/>
      <point x="464" y="320"/>
    </contour>
  </outline>
</glyph>
<glyph name="p" format="1">
  <advance width="1104"/>
  <unicode hex="0070"/>
  <outline>
    <contour>
      <point x="568" y="272" type="curve" smooth="yes"/>
      <point x="520" y="272"/>
      <point x="496" y="304"/>
      <point x="496" y="352" type="curve" smooth="yes"/>
      <point x="496" y="672" type="line" smooth="yes"/>
      <point x="496" y="720"/>
      <point x="520" y="752"/>
      <point x="568" y="752" type="curve" smooth="yes"/>
      <point x="616" y="752"/>
      <point x="640" y="720"/>
      <point x="640" y="672" type="curve" smooth="yes"/>
      <point x="640" y="352" type="line" smooth="yes"/>
      <point x="640" y="304"/>
      <point x="616" y="272"/>
    </contour>
    <contour>
      <point x="496" y="-384" type="line"/>
      <point x="496" y="47" type="line"/>
      <point x="547" y="-1"/>
      <point x="618" y="-32"/>
      <point x="712" y="-32" type="curve" smooth="yes"/>
      <point x="872" y="-32"/>
      <point x="1040" y="96"/>
      <point x="1040" y="320" type="curve" smooth="yes"/>
      <point x="1040" y="704" type="line" smooth="yes"/>
      <point x="1040" y="928"/>
      <point x="872" y="1056"/>
      <point x="712" y="1056" type="curve" smooth="yes"/>
      <point x="583" y="1056"/>
      <point x="497" y="998"/>
      <point x="447" y="915" type="curve"/>
      <point x="392" y="1024" type="line"/>
      <point x="96" y="1024" type="line"/>
      <point x="96" y="-448" type="line"/>
    </contour>
  </outline>
</glyph>
<glyph name="q" format="1">
  <advance width="1104"/>
  <unicode hex="0071"/>
  <outline>
    <contour>
      <point x="608" y="-448" type="line"/>
      <point x="1008" y="-384" type="line"/>
      <point x="1008" y="1024" type="line"/>
      <point x="712" y="1024" type="line"/>
      <point x="657" y="915" type="line"/>
      <point x="607" y="998"/>
      <point x="521" y="1056"/>
      <point x="392" y="1056" type="curve" smooth="yes"/>
      <point x="232" y="1056"/>
      <point x="64" y="928"/>
      <point x="64" y="704" type="curve" smooth="yes"/>
      <point x="64" y="320" type="line" smooth="yes"/>
      <point x="64" y="96"/>
      <point x="232" y="-32"/>
      <point x="392" y="-32" type="curve" smooth="yes"/>
      <point x="486" y="-32"/>
      <point x="557" y="-1"/>
      <point x="608" y="47" type="curve"/>
    </contour>
    <contour>
      <point x="536" y="272" type="curve" smooth="yes"/>
      <point x="488" y="272"/>
      <point x="464" y="304"/>
      <point x="464" y="352" type="curve" smooth="yes"/>
      <point x="464" y="672" type="line" smooth="yes"/>
      <point x="464" y="720"/>
      <point x="488" y="752"/>
      <point x="536" y="752" type="curve" smooth="yes"/>
      <point x="584" y="752"/>
      <point x="608" y="720"/>
      <point x="608" y="672" type="curve" smooth="yes"/>
      <point x="608" y="352" type="line" smooth="yes"/>
      <point x="608" y="304"/>
      <point x="584" y="272"/>
    </contour>
  </outline>
</glyph>
<glyph name="r" format="1">
  <advance width="864"/>
  <unicode hex="0072"/>
  <outline>
    <contour>
      <point x="496" y="576" type="line" smooth="yes"/>
      <point x="496" y="704"/>
      <point x="576" y="752"/>
      <point x="672" y="752" type="curve" smooth="yes"/>
      <point x="768" y="752"/>
      <point x="800" y="736"/>
      <point x="832" y="720" type="curve"/>
      <point x="832" y="1008" type="line"/>
      <point x="800" y="1040"/>
      <point x="736" y="1056"/>
      <point x="712" y="1056" type="curve" smooth="yes"/>
      <point x="583" y="1056"/>
      <point x="497" y="998"/>
      <point x="447" y="915" type="curve"/>
      <point x="392" y="1024" type="line"/>
      <point x="96" y="1024" type="line"/>
      <point x="96" y="0" type="line"/>
      <point x="496" y="0" type="line"/>
    </contour>
  </outline>
</glyph>
<glyph name="s" format="1">
  <advance width="736"/>
  <unicode hex="0073"/>
  <outline>
    <contour>
      <point x="592" y="512" type="curve" smooth="yes"/>
      <point x="528" y="576" type="line" smooth="yes"/>
      <point x="488" y="616"/>
      <point x="448" y="656"/>
      <point x="448" y="688" type="curve" smooth="yes"/>
      <point x="448" y="728"/>
      <point x="464" y="752"/>
      <point x="528" y="752" type="curve" smooth="yes"/>
      <point x="560" y="752"/>
      <point x="624" y="736"/>
      <point x="656" y="720" type="curve"/>
      <point x="656" y="1008" type="line"/>
      <point x="624" y="1024"/>
      <point x="560" y="1056"/>
      <point x="432" y="1056" type="curve" smooth="yes"/>
      <point x="176" y="1056"/>
      <point x="64" y="928"/>
      <point x="64" y="736" type="curve" smooth="yes"/>
      <point x="64" y="640"/>
      <point x="136" y="552"/>
      <point x="176" y="512" type="curve" smooth="yes"/>
      <point x="240" y="448" type="line" smooth="yes"/>
      <point x="272" y="416"/>
      <point x="288" y="384"/>
      <point x="288" y="352" type="curve" smooth="yes"/>
      <point x="288" y="288"/>
      <point x="240" y="272"/>
      <point x="208" y="272" type="curve" smooth="yes"/>
      <point x="144" y="272"/>
      <point x="128" y="288"/>
      <point x="80" y="304" type="curve"/>
      <point x="80" y="16" type="line"/>
      <point x="144" y="0"/>
      <point x="240" y="-32"/>
      <point x="320" y="-32" type="curve" smooth="yes"/>
      <point x="560" y="-32"/>
      <point x="672" y="128"/>
      <point x="672" y="320" type="curve" smooth="yes"/>
      <point x="672" y="416"/>
      <point x="620" y="484"/>
    </contour>
  </outline>
</glyph>
<glyph name="t" format="1">
  <advance width="720"/>
  <unicode hex="0074"/>
  <outline>
    <contour>
      <point x="528" y="0" type="line"/>
      <point x="528" y="704" type="line"/>
      <point x="688" y="704" type="line"/>
      <point x="688" y="1024" type="line"/>
      <point x="528" y="1024" type="line"/>
      <point x="528" y="1280" type="line"/>
      <point x="128" y="1216" type="line"/>
      <point x="128" y="1024" type="line"/>
      <point x="32" y="1024" type="line"/>
      <point x="32" y="704" type="line"/>
      <point x="128" y="704" type="line"/>
      <point x="128" y="0" type="line"/>
    </contour>
  </outline>
</glyph>
<glyph name="u" format="1">
  <advance width="1120"/>
  <unicode hex="0075"/>
  <outline>
    <contour>
      <point x="728" y="0" type="line"/>
      <point x="1024" y="0" type="line"/>
      <point x="1024" y="1024" type="line"/>
      <point x="624" y="1024" type="line"/>
      <point x="624" y="352" type="line" smooth="yes"/>
      <point x="624" y="304"/>
      <point x="600" y="272"/>
      <point x="552" y="272" type="curve" smooth="yes"/>
      <point x="504" y="272"/>
      <point x="480" y="304"/>
      <point x="480" y="352" type="curve" smooth="yes"/>
      <point x="480" y="1024" type="line"/>
      <point x="80" y="1024" type="line"/>
      <point x="80" y="320" type="line" smooth="yes"/>
      <point x="80" y="96"/>
      <point x="248" y="-32"/>
      <point x="408" y="-32" type="curve" smooth="yes"/>
      <point x="537" y="-32"/>
      <point x="623" y="26"/>
      <point x="673" y="109" type="curve"/>
    </contour>
  </outline>
</glyph>
<glyph name="v" format="1">
  <advance width="1056"/>
  <unicode hex="0076"/>
  <outline>
    <contour>
      <point x="256" y="0" type="line"/>
      <point x="800" y="0" type="line"/>
      <point x="1024" y="1024" type="line"/>
      <point x="640" y="1024" type="line"/>
      <point x="544" y="410" type="line"/>
      <point x="448" y="1024" type="line"/>
      <point x="32" y="1024" type="line"/>
    </contour>
  </outline>
</glyph>
<glyph name="w" format="1">
  <advance width="1472"/>
  <unicode hex="0077"/>
  <outline>
    <contour>
      <point x="256" y="0" type="line"/>
      <point x="672" y="0" type="line"/>
      <point x="736" y="372" type="line"/>
      <point x="800" y="0" type="line"/>
      <point x="1216" y="0" type="line"/>
      <point x="1440" y="1024" type="line"/>
      <point x="1152" y="1024" type="line"/>
      <point x="1068" y="488" type="line"/>
      <point x="976" y="1024" type="line"/>
      <point x="624" y="1024" type="line"/>
      <point x="525" y="534" type="line"/>
      <point x="448" y="1024" type="line"/>
      <point x="32" y="1024" type="line"/>
    </contour>
  </outline>
</glyph>
<glyph name="x" format="1">
  <advance width="1056"/>
  <unicode hex="0078"/>
  <outline>
    <contour>
      <point x="608" y="0" type="line"/>
      <point x="1024" y="0" type="line"/>
      <point x="784" y="512" type="line"/>
      <point x="1024" y="1024" type="line"/>
      <point x="640" y="1024" type="line"/>
      <point x="550" y="832" type="line"/>
      <point x="448" y="1024" type="line"/>
      <point x="32" y="1024" type="line"/>
      <point x="272" y="512" type="line"/>
      <point x="32" y="0" type="line"/>
      <point x="416" y="0" type="line"/>
      <point x="506" y="192" type="line"/>
    </contour>
  </outline>
</glyph>
<glyph name="y" format="1">
  <advance width="1056"/>
  <unicode hex="0079"/>
  <outline>
    <contour>
      <point x="352" y="-448" type="line"/>
      <point x="716" y="-384" type="line"/>
      <point x="1024" y="1024" type="line"/>
      <point x="640" y="1024" type="line"/>
      <point x="544" y="407" type="line"/>
      <point x="448" y="1024" type="line"/>
      <point x="32" y="1024" type="line"/>
      <point x="256" y="0" type="line"/>
      <point x="445" y="0" type="line"/>
    </contour>
  </outline>
</glyph>
<glyph name="z" format="1">
  <advance width="864"/>
  <unicode hex="007A"/>
  <outline>
    <contour>
      <point x="800" y="0" type="line"/>
      <point x="800" y="320" type="line"/>
      <point x="512" y="320" type="line"/>
      <point x="800" y="768" type="line"/>
      <point x="800" y="1024" type="line"/>
      <point x="64" y="1024" type="line"/>
      <point x="64" y="704" type="line"/>
      <point x="356" y="704" type="line"/>
      <point x="64" y="256" type="line"/>
      <point x="64" y="0" type="line"/>
    </contour>
  </outline>
</glyph>
<glyph name="bar" format="1">
  <advance width="500"/>
  <unicode hex="007C"/>
  <outline>
    <contour>
      <point x="416" y="-128" type="line"/>
      <point x="416" y="1600" type="line"/>
      <point x="96" y="1600" type="line"/>
      <point x="96" y="-128" type="line"/>
    </contour>
  </outline>
</glyph>
<glyph name="copyright" format="1">
  <advance width="1888"/>
  <unicode hex="00A9"/>
  <outline>
    <contour>
      <point x="960" y="-32" type="curve" smooth="yes"/>
      <point x="1368" y="-32"/>
      <point x="1712" y="288"/>
      <point x="1712" y="800" type="curve" smooth="yes"/>
      <point x="1712" y="1312"/>
      <point x="1368" y="1632"/>
      <point x="960" y="1632" type="curve" smooth="yes"/>
      <point x="552" y="1632"/>
      <point x="208" y="1312"/>
      <point x="208" y="800" type="curve" smooth="yes"/>
      <point x="208" y="288"/>
      <point x="552" y="-32"/>
    </contour>
    <contour>
      <point x="960" y="128" type="curve" smooth="yes"/>
      <point x="648" y="128"/>
      <point x="384" y="384"/>
      <point x="384" y="800" type="curve" smooth="yes"/>
      <point x="384" y="1216"/>
      <point x="648" y="1472"/>
      <point x="960" y="1472" type="curve" smooth="yes"/>
      <point x="1272" y="1472"/>
      <point x="1536" y="1216"/>
      <point x="1536" y="800" type="curve" smooth="yes"/>
      <point x="1536" y="384"/>
      <point x="1272" y="128"/>
    </contour>
    <contour>
      <point x="1248" y="352" type="curve"/>
      <point x="1248" y="512" type="line"/>
      <point x="1216" y="544" type="line"/>
      <point x="1152" y="512"/>
      <point x="1120" y="480"/>
      <point x="1040" y="480" type="curve" smooth="yes"/>
      <point x="864" y="480"/>
      <point x="800" y="592"/>
      <point x="800" y="768" type="curve" smooth="yes"/>
      <point x="800" y="832" type="line" smooth="yes"/>
      <point x="800" y="1008"/>
      <point x="864" y="1120"/>
      <point x="1040" y="1120" type="curve" smooth="yes"/>
      <point x="1120" y="1120"/>
      <point x="1152" y="1088"/>
      <point x="1216" y="1056" type="curve"/>
      <point x="1248" y="1088" type="line"/>
      <point x="1248" y="1248" type="line"/>
      <point x="1216" y="1280"/>
      <point x="1136" y="1344"/>
      <point x="1040" y="1344" type="curve" smooth="yes"/>
      <point x="720" y="1344"/>
      <point x="544" y="1152"/>
      <point x="544" y="832" type="curve" smooth="yes"/>
      <point x="544" y="768" type="line" smooth="yes"/>
      <point x="544" y="448"/>
      <point x="720" y="256"/>
      <point x="1040" y="256" type="curve" smooth="yes"/>
      <point x="1136" y="256"/>
      <point x="1216" y="320"/>
    </contour>
  </outline>
</glyph>
<glyph name="endash" format="1">
  <advance width="960"/>
  <unicode hex="2013"/>
  <outline>
    <contour>
      <point x="896" y="768" type="line"/>
      <point x="64" y="768" type="line"/>
      <point x="64" y="528" type="line"/>
      <point x="896" y="528" type="line"/>
    </contour>
  </outline>
</glyph>
<glyph name="emdash" format="1">
  <advance width="1680"/>
  <unicode hex="2014"/>
  <outline>
    <contour>
      <point x="1512" y="768" type="line"/>
      <point x="168" y="768" type="line"/>
      <point x="168" y="528" type="line"/>
      <point x="1512" y="528" type="line"/>
    </contour>
  </outline>
</glyph>
<glyph name="quoteright" format="1">
  <advance width="500"/>
  <unicode hex="2019"/>
  <outline>
    <contour>
      <point x="432" y="832" type="line"/>
      <point x="432" y="1472" type="line"/>
      <point x="80" y="1472" type="line"/>
      <point x="80" y="768" type="line"/>
    </contour>
  </outline>
</glyph>
<glyph name="quotedblleft" format="1">
  <advance width="1088"/>
  <unicode hex="201C"/>
  <outline>
    <contour>
      <point x="448" y="1536" type="line"/>
      <point x="96" y="1472" type="line"/>
      <point x="96" y="832" type="line"/>
      <point x="448" y="832" type="line"/>
    </contour>
    <contour>
      <point x="992" y="1536" type="line"/>
      <point x="640" y="1472" type="line"/>
      <point x="640" y="832" type="line"/>
      <point x="992" y="832" type="line"/>
    </contour>
  </outline>
</glyph>
<glyph name="quotedblright" format="1">
  <advance width="1088"/>
  <unicode hex="201D"/>
  <outline>
    <contour>
      <point x="448" y="832" type="line"/>
      <point x="448" y="1472" type="line"/>
      <point x="96" y="1472" type="line"/>
      <point x="96" y="768" type="line"/>
    </contour>
    <contour>
      <point x="992" y="832" type="line"/>
      <point x="992" y="1472" type="line"/>
      <point x="640" y="1472" type="line"/>
      <point x="640" y="768" type="line"/>
    </contour>
  </outline>
</glyph>
<glyph name="Q.alt001" format="1">
  <advance width="1152"/>
  <outline>
    <contour>
      <point x="384" y="-384" type="line"/>
      <point x="768" y="-320" type="line"/>
      <point x="768" y="-5" type="line"/>
      <point x="973" y="61"/>
      <point x="1088" y="244"/>
      <point x="1088" y="544" type="curve" smooth="yes"/>
      <point x="1088" y="928" type="line" smooth="yes"/>
      <point x="1088" y="1312"/>
      <point x="896" y="1504"/>
      <point x="576" y="1504" type="curve" smooth="yes"/>
      <point x="256" y="1504"/>
      <point x="64" y="1312"/>
      <point x="64" y="928" type="curve" smooth="yes"/>
      <point x="64" y="544" type="line" smooth="yes"/>
      <point x="64" y="245"/>
      <point x="181" y="62"/>
      <point x="384" y="-4" type="curve"/>
    </contour>
    <contour>
      <point x="672" y="1072" type="curve" smooth="yes"/>
      <point x="672" y="400" type="line" smooth="yes"/>
      <point x="672" y="344"/>
      <point x="632" y="304"/>
      <point x="576" y="304" type="curve" smooth="yes"/>
      <point x="520" y="304"/>
      <point x="480" y="344"/>
      <point x="480" y="400" type="curve" smooth="yes"/>
      <point x="480" y="1072" type="line" smooth="yes"/>
      <point x="480" y="1128"/>
      <point x="520" y="1168"/>
      <point x="576" y="1168" type="curve" smooth="yes"/>
      <point x="632" y="1168"/>
      <point x="672" y="1128"/>
    </contour>
  </outline>
</glyph>
<glyph name="t_t" format="1">
  <advance width="1456"/>
  <outline>
    <contour>
      <point x="864" y="1024" type="line"/>
      <point x="528" y="1024" type="line"/>
      <point x="528" y="1280" type="line"/>
      <point x="128" y="1216" type="line"/>
      <point x="128" y="1024" type="line"/>
      <point x="32" y="1024" type="line"/>
      <point x="32" y="704" type="line"/>
      <point x="128" y="704" type="line"/>
      <point x="128" y="0" type="line"/>
      <point x="528" y="0" type="line"/>
      <point x="528" y="704" type="line"/>
      <point x="864" y="704" type="line"/>
      <point x="864" y="0" type="line"/>
      <point x="1264" y="0" type="line"/>
      <point x="1264" y="704" type="line"/>
      <point x="1424" y="704" type="line"/>
      <point x="1424" y="1024" type="line"/>
      <point x="1264" y="1024" type="line"/>
      <point x="1264" y="1280" type="line"/>
      <point x="864" y="1216" type="line"/>
    </contour>
  </outline>
</glyph>
